<svg width="151" height="45" viewBox="0 0 151 45" fill="none" xmlns="http://www.w3.org/2000/svg">
<path d="M4.5957 11.5156V30H2.14551V11.5156H4.5957ZM12.3398 19.8311V21.8369H4.0625V19.8311H12.3398ZM13.5967 11.5156V13.5215H4.0625V11.5156H13.5967ZM23.8291 27.6514V20.5801C23.8291 20.0384 23.7191 19.5687 23.499 19.1709C23.2874 18.7646 22.9658 18.4515 22.5342 18.2314C22.1025 18.0114 21.5693 17.9014 20.9346 17.9014C20.3421 17.9014 19.8216 18.0029 19.373 18.2061C18.9329 18.4092 18.5859 18.6758 18.332 19.0059C18.0866 19.3359 17.9639 19.6914 17.9639 20.0723H15.6152C15.6152 19.5814 15.7422 19.0947 15.9961 18.6123C16.25 18.1299 16.6139 17.694 17.0879 17.3047C17.5703 16.9069 18.1458 16.5938 18.8145 16.3652C19.4915 16.1283 20.2448 16.0098 21.0742 16.0098C22.0729 16.0098 22.9531 16.179 23.7148 16.5176C24.485 16.8561 25.0859 17.3682 25.5176 18.0537C25.9577 18.7308 26.1777 19.5814 26.1777 20.6055V27.0039C26.1777 27.4609 26.2158 27.9476 26.292 28.4639C26.3766 28.9801 26.4993 29.4245 26.6602 29.7969V30H24.21C24.0915 29.7292 23.9984 29.3695 23.9307 28.9209C23.863 28.4639 23.8291 28.0407 23.8291 27.6514ZM24.2354 21.6719L24.2607 23.3223H21.8867C21.2181 23.3223 20.6214 23.3773 20.0967 23.4873C19.5719 23.5889 19.1318 23.7454 18.7764 23.957C18.4209 24.1686 18.1501 24.4352 17.9639 24.7568C17.7777 25.07 17.6846 25.4382 17.6846 25.8613C17.6846 26.293 17.7819 26.6865 17.9766 27.042C18.1712 27.3975 18.4632 27.681 18.8525 27.8926C19.2503 28.0957 19.737 28.1973 20.3125 28.1973C21.0319 28.1973 21.6667 28.0449 22.2168 27.7402C22.7669 27.4355 23.2028 27.0632 23.5244 26.623C23.8545 26.1829 24.0322 25.7555 24.0576 25.3408L25.0605 26.4707C25.0013 26.8262 24.8405 27.2197 24.5781 27.6514C24.3158 28.083 23.9645 28.4977 23.5244 28.8955C23.0928 29.2848 22.5765 29.6107 21.9756 29.873C21.3831 30.127 20.7145 30.2539 19.9697 30.2539C19.0387 30.2539 18.222 30.0719 17.5195 29.708C16.8255 29.3441 16.2839 28.8574 15.8945 28.248C15.5137 27.6302 15.3232 26.9404 15.3232 26.1787C15.3232 25.4424 15.4671 24.7949 15.7549 24.2363C16.0426 23.6693 16.4574 23.1995 16.999 22.8271C17.5407 22.4463 18.1924 22.1585 18.9541 21.9639C19.7158 21.7692 20.5664 21.6719 21.5059 21.6719H24.2354ZM35.3691 28.3242C35.9277 28.3242 36.444 28.21 36.918 27.9814C37.3919 27.7529 37.7812 27.4398 38.0859 27.042C38.3906 26.6357 38.5641 26.1745 38.6064 25.6582H40.8408C40.7985 26.4707 40.5234 27.2282 40.0156 27.9307C39.5163 28.6247 38.8604 29.1875 38.0479 29.6191C37.2354 30.0423 36.3424 30.2539 35.3691 30.2539C34.3366 30.2539 33.4352 30.0719 32.665 29.708C31.9033 29.3441 31.2686 28.8447 30.7607 28.21C30.2614 27.5752 29.8848 26.8473 29.6309 26.0264C29.3854 25.1969 29.2627 24.321 29.2627 23.3984V22.8652C29.2627 21.9427 29.3854 21.071 29.6309 20.25C29.8848 19.4206 30.2614 18.6885 30.7607 18.0537C31.2686 17.4189 31.9033 16.9196 32.665 16.5557C33.4352 16.1917 34.3366 16.0098 35.3691 16.0098C36.444 16.0098 37.3835 16.2298 38.1875 16.6699C38.9915 17.1016 39.6221 17.694 40.0791 18.4473C40.5446 19.1921 40.7985 20.0384 40.8408 20.9863H38.6064C38.5641 20.4193 38.4033 19.9072 38.124 19.4502C37.8532 18.9932 37.4808 18.6292 37.0068 18.3584C36.5413 18.0791 35.9954 17.9395 35.3691 17.9395C34.6497 17.9395 34.0446 18.0833 33.5537 18.3711C33.0713 18.6504 32.6862 19.0312 32.3984 19.5137C32.1191 19.9876 31.916 20.5166 31.7891 21.1006C31.6706 21.6761 31.6113 22.2643 31.6113 22.8652V23.3984C31.6113 23.9993 31.6706 24.5918 31.7891 25.1758C31.9076 25.7598 32.1064 26.2887 32.3857 26.7627C32.6735 27.2367 33.0586 27.6175 33.541 27.9053C34.0319 28.1846 34.6413 28.3242 35.3691 28.3242ZM46.0332 16.2637V30H43.6719V16.2637H46.0332ZM43.4941 12.6201C43.4941 12.2393 43.6084 11.9176 43.8369 11.6553C44.0739 11.3929 44.4209 11.2617 44.8779 11.2617C45.3265 11.2617 45.6693 11.3929 45.9062 11.6553C46.1517 11.9176 46.2744 12.2393 46.2744 12.6201C46.2744 12.984 46.1517 13.2972 45.9062 13.5596C45.6693 13.8135 45.3265 13.9404 44.8779 13.9404C44.4209 13.9404 44.0739 13.8135 43.8369 13.5596C43.6084 13.2972 43.4941 12.984 43.4941 12.6201ZM52.3555 10.5V30H49.9941V10.5H52.3555ZM58.6777 16.2637V30H56.3164V16.2637H58.6777ZM56.1387 12.6201C56.1387 12.2393 56.2529 11.9176 56.4814 11.6553C56.7184 11.3929 57.0654 11.2617 57.5225 11.2617C57.971 11.2617 58.3138 11.3929 58.5508 11.6553C58.7962 11.9176 58.9189 12.2393 58.9189 12.6201C58.9189 12.984 58.7962 13.2972 58.5508 13.5596C58.3138 13.8135 57.971 13.9404 57.5225 13.9404C57.0654 13.9404 56.7184 13.8135 56.4814 13.5596C56.2529 13.2972 56.1387 12.984 56.1387 12.6201ZM68.1992 16.2637V18.0664H60.7725V16.2637H68.1992ZM63.2861 12.9248H65.6348V26.5977C65.6348 27.0632 65.7067 27.4144 65.8506 27.6514C65.9945 27.8883 66.1807 28.0449 66.4092 28.1211C66.6377 28.1973 66.8831 28.2354 67.1455 28.2354C67.3402 28.2354 67.5433 28.2184 67.7549 28.1846C67.9749 28.1423 68.14 28.1084 68.25 28.083L68.2627 30C68.0765 30.0592 67.8311 30.1143 67.5264 30.165C67.2301 30.2243 66.8704 30.2539 66.4473 30.2539C65.8717 30.2539 65.3428 30.1396 64.8604 29.9111C64.3779 29.6826 63.9928 29.3018 63.7051 28.7686C63.4258 28.2269 63.2861 27.499 63.2861 26.585V12.9248ZM79.0537 27.6514V20.5801C79.0537 20.0384 78.9437 19.5687 78.7236 19.1709C78.512 18.7646 78.1904 18.4515 77.7588 18.2314C77.3271 18.0114 76.7939 17.9014 76.1592 17.9014C75.5667 17.9014 75.0462 18.0029 74.5977 18.2061C74.1576 18.4092 73.8105 18.6758 73.5566 19.0059C73.3112 19.3359 73.1885 19.6914 73.1885 20.0723H70.8398C70.8398 19.5814 70.9668 19.0947 71.2207 18.6123C71.4746 18.1299 71.8385 17.694 72.3125 17.3047C72.7949 16.9069 73.3704 16.5938 74.0391 16.3652C74.7161 16.1283 75.4694 16.0098 76.2988 16.0098C77.2975 16.0098 78.1777 16.179 78.9395 16.5176C79.7096 16.8561 80.3105 17.3682 80.7422 18.0537C81.1823 18.7308 81.4023 19.5814 81.4023 20.6055V27.0039C81.4023 27.4609 81.4404 27.9476 81.5166 28.4639C81.6012 28.9801 81.724 29.4245 81.8848 29.7969V30H79.4346C79.3161 29.7292 79.223 29.3695 79.1553 28.9209C79.0876 28.4639 79.0537 28.0407 79.0537 27.6514ZM79.46 21.6719L79.4854 23.3223H77.1113C76.4427 23.3223 75.846 23.3773 75.3213 23.4873C74.7965 23.5889 74.3564 23.7454 74.001 23.957C73.6455 24.1686 73.3747 24.4352 73.1885 24.7568C73.0023 25.07 72.9092 25.4382 72.9092 25.8613C72.9092 26.293 73.0065 26.6865 73.2012 27.042C73.3958 27.3975 73.6878 27.681 74.0771 27.8926C74.4749 28.0957 74.9616 28.1973 75.5371 28.1973C76.2565 28.1973 76.8913 28.0449 77.4414 27.7402C77.9915 27.4355 78.4274 27.0632 78.749 26.623C79.0791 26.1829 79.2568 25.7555 79.2822 25.3408L80.2852 26.4707C80.2259 26.8262 80.0651 27.2197 79.8027 27.6514C79.5404 28.083 79.1891 28.4977 78.749 28.8955C78.3174 29.2848 77.8011 29.6107 77.2002 29.873C76.6077 30.127 75.9391 30.2539 75.1943 30.2539C74.2633 30.2539 73.4466 30.0719 72.7441 29.708C72.0501 29.3441 71.5085 28.8574 71.1191 28.248C70.7383 27.6302 70.5479 26.9404 70.5479 26.1787C70.5479 25.4424 70.6917 24.7949 70.9795 24.2363C71.2673 23.6693 71.682 23.1995 72.2236 22.8271C72.7653 22.4463 73.417 22.1585 74.1787 21.9639C74.9404 21.7692 75.791 21.6719 76.7305 21.6719H79.46Z" fill="white"/>
<g clip-path="url(#clip0_195_2)">
<path fill-rule="evenodd" clip-rule="evenodd" d="M206.067 19.0948H203.314L203.086 20.0973H206.067C208.794 20.0973 209.715 20.8344 209.715 23.0184V24.0756C209.038 23.388 207.842 23.0394 206.153 23.0394C203.457 23.0394 202.146 24.2 202.146 26.5867V26.7605C202.146 28.9982 203.437 30.1332 205.982 30.1332H206.667C209.362 30.1332 210.73 28.9982 210.73 26.7605V23.0184C210.73 20.2315 209.379 19.0948 206.067 19.0948ZM209.715 26.9052C209.715 28.5066 208.852 29.1307 206.638 29.1307H206.21C204.074 29.1307 203.162 28.4215 203.162 26.7605V26.5867C203.162 24.7825 204.031 24.0132 206.067 24.0132H206.238C208.675 24.0132 209.715 24.7565 209.715 26.4996V26.9052V26.9052ZM135.375 21.0617L135.917 18.3836H131.255V14.7253L127.983 15.2271V26.1544C127.983 29.9321 129.442 31.0563 133.421 31.0563H135.163L135.704 28.4018H133.656C131.844 28.4018 131.255 27.9481 131.255 25.9391V21.0617H135.375V21.0617ZM112.892 13.4576V25.1983C112.892 29.5502 114.87 31.3673 119.178 31.3673C123.651 31.3673 125.628 29.598 125.628 25.2219V24.0984C125.628 19.9857 123.792 17.9769 119.79 17.9769C118.519 17.9769 117.13 18.2398 116.188 18.9809V12.9315L112.892 13.4573V13.4576ZM119.296 20.6069C121.555 20.6069 122.356 21.5157 122.356 24.2174V25.2219C122.356 27.8519 121.555 28.761 119.248 28.761C116.942 28.761 116.141 27.8519 116.141 25.198V23.8352C116.141 21.42 116.941 20.6069 119.295 20.6069H119.296ZM143.285 17.9769C138.977 17.9769 136.999 19.8179 136.999 24.0263V24.672C136.999 28.665 138.718 30.6017 142.767 30.6017C144.062 30.6017 145.357 30.363 146.275 29.6214V30.1002C146.275 32.3479 145.31 33.0884 143.049 33.0884H141.696C140.923 33.1023 140.571 33.2419 140.105 34.018L140.102 34.0169C136.221 40.2565 129.482 44.0684 122.137 44.0684C110.419 44.0684 100.886 34.386 100.886 22.4838C100.886 10.5818 110.419 0.89943 122.137 0.89943C130.368 0.89943 137.856 5.74092 141.36 13.2753H142.336C138.766 5.20747 130.85 0 122.137 0C109.931 0 100 10.0863 100 22.4838C100 34.8815 109.931 44.9678 122.137 44.9678C129.316 44.9678 135.941 41.4721 140.071 35.6708H143.238C147.405 35.6708 149.547 34.069 149.547 29.9802V23.8113C149.547 19.7462 147.499 17.9769 143.285 17.9769V17.9769ZM146.298 25.0784C146.298 27.3261 145.521 28.0193 143.285 28.0193C140.766 28.0193 140.272 27.1347 140.272 24.5287V24.1223C140.272 21.5393 140.719 20.6069 143.285 20.6069C145.804 20.6069 146.298 21.5157 146.298 24.1459V25.0784V25.0784ZM212.827 30.1332H213.843V14.9471H212.827V30.1332H212.827ZM189.943 20.0976L190.171 19.0948H185.628V16.2279L184.584 16.4173V26.2384C184.584 29.0352 185.616 30.0754 188.39 30.0754H189.89L190.08 29.0728H188.39C186.299 29.0728 185.628 28.3984 185.628 26.2959V20.0979H189.943L189.943 20.0976ZM199.348 25.7745C199.348 28.3591 198.552 29.1885 196.072 29.1885C193.665 29.1885 192.853 28.3272 192.853 25.7745V19.0948H191.809V25.7745C191.809 28.9529 193.004 30.191 196.072 30.191C199.12 30.191 200.364 28.9119 200.364 25.7745V19.0948H199.348V25.7745ZM176.375 25.0493V24.1209C176.375 21.1503 177.374 20.0976 180.194 20.0976H182.576L182.803 19.0948H180.194C176.831 19.0948 175.331 20.6447 175.331 24.1206V25.0493C175.331 28.5252 176.831 30.0754 180.194 30.0754H182.604L182.832 29.0728H180.194C177.446 29.0728 176.375 27.9447 176.375 25.0493H176.375ZM168.857 19.0948H166.103L165.876 20.0973H168.857C171.562 20.0973 172.475 20.8344 172.475 23.0184V24.0756C171.799 23.388 170.604 23.0394 168.913 23.0394C166.218 23.0394 164.908 24.2 164.908 26.5867V26.7605C164.908 28.9982 166.207 30.1332 168.771 30.1332H169.456C172.134 30.1332 173.491 28.9982 173.491 26.7605V23.0184C173.491 20.2315 172.148 19.0948 168.857 19.0948ZM172.475 26.9052C172.475 28.5277 171.649 29.1307 169.428 29.1307H168.999C166.844 29.1307 165.923 28.4215 165.923 26.7605V26.5867C165.923 24.7825 166.792 24.0132 168.828 24.0132H168.999C171.436 24.0132 172.475 24.7565 172.475 26.4996V26.9052V26.9052ZM158.633 18.9208C155.413 18.9208 153.913 20.5365 153.913 24.0046V33.4398H154.928V28.5949C155.664 29.5653 157.034 30.1332 158.69 30.1332C161.895 30.1332 163.325 28.565 163.325 25.0493V23.9759C163.325 20.4798 161.878 18.9205 158.633 18.9205V18.9208ZM162.28 25.049C162.28 28.0245 161.307 29.1304 158.69 29.1304C156.213 29.1304 154.957 27.9037 154.957 25.484V24.0046C154.957 21.1053 156.022 19.923 158.633 19.923C161.257 19.923 162.28 21.0591 162.28 23.9759V25.049V25.049Z" fill="white"/>
</g>
<defs>
<clipPath id="clip0_195_2">
<rect width="51" height="45" fill="white" transform="translate(100)"/>
</clipPath>
</defs>
</svg>
