<svg width="107" height="42" viewBox="0 0 107 42" fill="none" xmlns="http://www.w3.org/2000/svg">
<path fill-rule="evenodd" clip-rule="evenodd" d="M99.4654 17.8218H96.8837L96.6699 18.7575H99.4654C102.023 18.7575 102.886 19.4455 102.886 21.4838V22.4705C102.252 21.8288 101.13 21.5035 99.5458 21.5035C97.0175 21.5035 95.7887 22.5867 95.7887 24.8143V24.9764C95.7887 27.065 96.999 28.1243 99.3853 28.1243H100.028C102.556 28.1243 103.838 27.065 103.838 24.9764V21.4838C103.838 18.8827 102.571 17.8218 99.4654 17.8218ZM102.886 25.1115C102.886 26.6062 102.077 27.1886 100.001 27.1886H99.5995C97.5961 27.1886 96.7412 26.5267 96.7412 24.9764V24.8143C96.7412 23.1303 97.5558 22.4123 99.4654 22.4123H99.6261C101.911 22.4123 102.886 23.1061 102.886 24.7329V25.1115ZM33.1732 19.6576L33.6811 17.1581H29.3097V13.7436L26.2411 14.2119V24.4108C26.2411 27.9366 27.6095 28.9858 31.3405 28.9858H32.974L33.4821 26.5084H31.5612C29.8616 26.5084 29.3094 26.0849 29.3094 24.2098V19.6576H33.1732ZM12.0899 12.5604V23.5184C12.0899 27.5802 13.9441 29.2761 17.9843 29.2761C22.1788 29.2761 24.0333 27.6248 24.0333 23.5405V22.4918C24.0333 18.6533 22.3111 16.7785 18.5583 16.7785C17.366 16.7785 16.0634 17.0238 15.1803 17.7155V12.0694L12.0899 12.5601V12.5604ZM18.0946 19.2331C20.2139 19.2331 20.9647 20.0813 20.9647 22.6029V23.5405C20.9647 25.9951 20.2139 26.8436 18.0505 26.8436C15.8871 26.8436 15.1359 25.9951 15.1359 23.5181V22.2462C15.1359 19.992 15.8868 19.2331 18.0943 19.2331H18.0946ZM40.5909 16.7785C36.5507 16.7785 34.6962 18.4967 34.6962 22.4245V23.0272C34.6962 26.754 36.3079 28.5616 40.1048 28.5616C41.3192 28.5616 42.5336 28.3388 43.3944 27.6466V28.0935C43.3944 30.1914 42.4895 30.8825 40.3699 30.8825H39.101C38.3756 30.8955 38.046 31.0258 37.6089 31.7501L37.6065 31.7491C33.9663 37.5727 27.6466 41.1305 20.7593 41.1305C9.77034 41.1305 0.83046 32.0936 0.83046 20.9848C0.83046 9.87638 9.77034 0.839468 20.7593 0.839468C28.4781 0.839468 35.5001 5.35819 38.7853 12.3903H39.701C36.3528 4.8603 28.9303 0 20.7593 0C9.31276 0 0 9.41385 0 20.9848C0 32.5561 9.31276 41.97 20.7593 41.97C27.4912 41.97 33.7037 38.7073 37.5766 33.2927H40.5465C44.4542 33.2927 46.4633 31.7977 46.4633 27.9816V22.2238C46.4633 18.4298 44.5426 16.7785 40.5909 16.7785ZM43.4167 23.4065C43.4167 25.5044 42.6882 26.1514 40.5912 26.1514C38.2286 26.1514 37.7651 25.3257 37.7651 22.8935V22.5141C37.7651 20.1034 38.1845 19.2331 40.5909 19.2331C42.953 19.2331 43.4167 20.0813 43.4167 22.5362V23.4065ZM105.805 28.1243H106.757V13.9506H105.805V28.1243H105.805ZM84.345 18.7578L84.5588 17.8218H80.2984V15.146L79.3193 15.3228V24.4892C79.3193 27.0996 80.2868 28.0704 82.8887 28.0704H84.2956L84.4735 27.1347H82.8887C80.9278 27.1347 80.2984 26.5052 80.2984 24.5429V18.758H84.3453L84.345 18.7578ZM93.1645 24.0562C93.1645 26.4685 92.4179 27.2426 90.0924 27.2426C87.8354 27.2426 87.0735 26.4387 87.0735 24.0562V17.8218H86.0944V24.0562C86.0944 27.0227 87.2155 28.1783 90.0921 28.1783C92.951 28.1783 94.117 26.9845 94.117 24.0562V17.8218H93.1645V24.0562ZM71.6214 23.3794V22.5128C71.6214 19.7403 72.5584 18.7578 75.2025 18.7578H77.4365L77.6495 17.8218H75.2027C72.0492 17.8218 70.642 19.2684 70.642 22.5125V23.3794C70.642 26.6235 72.0489 28.0704 75.2027 28.0704H77.4626L77.6764 27.1347H75.2027C72.6253 27.1347 71.6217 26.0817 71.6217 23.3794H71.6214ZM64.571 17.8218H61.989L61.7758 18.7575H64.571C67.1084 18.7575 67.9644 19.4455 67.9644 21.4838V22.4705C67.3307 21.8288 66.2093 21.5035 64.6242 21.5035C62.0966 21.5035 60.8677 22.5867 60.8677 24.8143V24.9764C60.8677 27.065 62.0863 28.1243 64.4903 28.1243H65.1332C67.6442 28.1243 68.9171 27.065 68.9171 24.9764V21.4838C68.9171 18.8827 67.6579 17.8218 64.571 17.8218ZM67.9644 25.1115C67.9644 26.6259 67.1898 27.1886 65.1065 27.1886H64.7049C62.6832 27.1886 61.8202 26.5267 61.8202 24.9764V24.8143C61.8202 23.1303 62.6348 22.4123 64.5441 22.4123H64.7049C66.9895 22.4123 67.9644 23.1061 67.9644 24.7329V25.1115ZM54.9835 17.6594C51.9638 17.6594 50.5572 19.1674 50.5572 22.4043V31.2105H51.5097V26.6886C52.1991 27.5943 53.4841 28.1243 55.037 28.1243C58.0429 28.1243 59.3834 26.6607 59.3834 23.3794V22.3775C59.3834 19.1145 58.0263 17.6591 54.9835 17.6591V17.6594ZM58.4037 23.3791C58.4037 26.1562 57.4915 27.1884 55.037 27.1884C52.7142 27.1884 51.5364 26.0435 51.5364 23.785V22.4043C51.5364 19.6983 52.5351 18.5948 54.9835 18.5948C57.4448 18.5948 58.4037 19.6552 58.4037 22.3775V23.3791Z" fill="white"/>
</svg>
